<svg xmlns="http://www.w3.org/2000/svg" viewBox="0 0 64 64" width="64" height="64">
  <!-- Brain outline (simplified, one hemisphere) -->
  <path d="M20 40 C12 40 8 34 8 28 C8 22 12 18 16 16 C16 10 22 6 28 6 C34 6 38 8 40 12 C44 10 50 12 52 18 C56 20 58 26 56 32 C54 38 48 42 42 40" fill="none" stroke="#1A1A18" stroke-width="2" stroke-linecap="round" stroke-linejoin="round"/>
  <!-- Brain stem -->
  <path d="M28 40 L28 52 M36 40 L36 52" fill="none" stroke="#1A1A18" stroke-width="1.5" stroke-linecap="round"/>
  <line x1="24" y1="52" x2="40" y2="52" stroke="#1A1A18" stroke-width="1.5" stroke-linecap="round"/>
  <!-- Circuit nodes suggesting AI/intelligence -->
  <circle cx="22" cy="22" r="2.5" fill="none" stroke="#1A1A18" stroke-width="1.5"/>
  <circle cx="36" cy="18" r="2.5" fill="none" stroke="#1A1A18" stroke-width="1.5"/>
  <circle cx="30" cy="32" r="2.5" fill="none" stroke="#1A1A18" stroke-width="1.5"/>
  <circle cx="44" cy="28" r="2.5" fill="none" stroke="#1A1A18" stroke-width="1.5"/>
  <!-- Circuit connections between nodes -->
  <line x1="24" y1="23" x2="34" y2="18" stroke="#1A1A18" stroke-width="1" stroke-linecap="round" opacity="0.6"/>
  <line x1="37" y1="20" x2="31" y2="30" stroke="#1A1A18" stroke-width="1" stroke-linecap="round" opacity="0.6"/>
  <line x1="32" y1="31" x2="42" y2="28" stroke="#1A1A18" stroke-width="1" stroke-linecap="round" opacity="0.6"/>
  <line x1="24" y1="24" x2="29" y2="30" stroke="#1A1A18" stroke-width="1" stroke-linecap="round" opacity="0.6"/>
</svg>
